<svg xmlns="http://www.w3.org/2000/svg" viewBox="0 0 200 260" width="200" height="260">
  <defs>
    <linearGradient id="beam" x1="0" y1="0" x2="0" y2="1">
      <stop offset="0%"   stop-color="rgba(255,255,255,0.50)"/>
      <stop offset="8%"   stop-color="#d0d0d0"/>
      <stop offset="50%"  stop-color="#c8c8c8"/>
      <stop offset="90%"  stop-color="#b0b0b0"/>
      <stop offset="100%" stop-color="rgba(0,0,0,0.10)"/>
    </linearGradient>
    <linearGradient id="fab" x1="0" y1="0" x2="0" y2="1">
      <stop offset="0%"   stop-color="rgba(192,192,192,0.88)"/>
      <stop offset="100%" stop-color="rgba(160,160,160,0.88)"/>
    </linearGradient>
    <pattern id="fold" width="1" height="15" patternUnits="userSpaceOnUse">
      <rect x="0" y="12" width="1" height="1" fill="rgba(80,80,80,0.12)"/>
    </pattern>
    <linearGradient id="fab-sh" x1="0" y1="0" x2="0" y2="1">
      <stop offset="0%"   stop-color="rgba(0,0,0,0.14)"/>
      <stop offset="20%"  stop-color="rgba(0,0,0,0)"/>
      <stop offset="80%"  stop-color="rgba(0,0,0,0)"/>
      <stop offset="100%" stop-color="rgba(0,0,0,0.14)"/>
    </linearGradient>
    <filter id="bsf" x="-5%" y="-100%" width="110%" height="400%">
      <feDropShadow dx="0" dy="2" stdDeviation="3" flood-color="rgba(0,0,0,0.18)"/>
    </filter>
  </defs>
  <rect x="0" y="0" width="200" height="260" rx="6" ry="6" fill="#e0e0e0"/>
  <rect x="6" y="6" width="188" height="73" fill="#f5f5f5"/>
  <rect x="6" y="77" width="188" height="16" rx="4" fill="url(#beam)" filter="url(#bsf)"/>
  <rect x="6" y="79" width="188" height="1" fill="rgba(255,255,255,0.60)"/>
  <rect x="6" y="91" width="188" height="1" fill="rgba(0,0,0,0.10)"/>
  <rect x="6" y="93" width="188" height="100" fill="url(#fab)"/>
  <rect x="6" y="93" width="188" height="100" fill="url(#fold)"/>
  <rect x="6" y="93" width="188" height="100" fill="url(#fab-sh)"/>
  <rect x="6" y="193" width="188" height="16" rx="4" fill="url(#beam)" filter="url(#bsf)"/>
  <rect x="6" y="195" width="188" height="1" fill="rgba(255,255,255,0.60)"/>
  <rect x="6" y="207" width="188" height="1" fill="rgba(0,0,0,0.10)"/>
  <rect x="6" y="209" width="188" height="45" fill="#f5f5f5"/>
  <rect x="6" y="6" width="188" height="248" rx="2" ry="2" fill="none" stroke="#d0d0d0" stroke-width="1" opacity="0.6"/>
  <rect x="20" y="236" width="160" height="18" rx="4" fill="rgba(0,0,0,0.10)"/>
  <text x="100" y="249" text-anchor="middle" font-family="sans-serif" font-size="10" fill="#666" font-weight="600" letter-spacing="0.5">&#x2B1C; Minimal</text>
</svg>
